# xmcd
#
# Track frame offsets: 
#        150
#        10706
#        21496
#        33645
#        43254
#        53543
#        64723
#        78926
#        91006
#        102639
#        113850
#        126035
#        138240
#        150167
#        160990
#        171695
#        182492
#        192427
#        203605
#
# Disc length: 2897 seconds
#
# Revision: 0
# Processed by: cddbd v1.5.2PL0 Copyright (c) Steve Scherf et al.
# Submitted via: ExactAudioCopy v1.1
#
DISCID=f70b4f13
DTITLE=George Jones - George Jone Vol. 2_6 Classic Albums Plus_CD1
DYEAR=2014
DGENRE=Country
TTITLE0=Three's A Crowd
TTITLE1=Poor Little Rich Boy
TTITLE2=Root Beer
TTITLE3=What Am I Worth?
TTITLE4=She Once Lived Here
TTITLE5=Immitation Of Love
TTITLE6=Open Pit Mine
TTITLE7=Beggar To A King
TTITLE8=She Thinks I Stilll Care
TTITLE9=Running Bear
TTITLE10=Best Guitar Picker
TTITLE11=Sometimes You Just Can´t Win
TTITLE12=Peace In The Valley
TTITLE13=I Could Never Be Ashamed Of You
TTITLE14=Silver Dew On The Blue Grass Tonight
TTITLE15=The Precious Jewel
TTITLE16=It's A Sin
TTITLE17=Don't Let The Stars Get In Your Eyes
TTITLE18=Give My Love To Rose
EXTD=
EXTT0=
EXTT1=
EXTT2=
EXTT3=
EXTT4=
EXTT5=
EXTT6=
EXTT7=
EXTT8=
EXTT9=
EXTT10=
EXTT11=
EXTT12=
EXTT13=
EXTT14=
EXTT15=
EXTT16=
EXTT17=
EXTT18=
PLAYORDER=
